<?xml version="1.0" encoding="utf-8"?>
<!-- Generator: Adobe Illustrator 17.1.0, SVG Export Plug-In . SVG Version: 6.00 Build 0)  -->
<!DOCTYPE svg PUBLIC "-//W3C//DTD SVG 1.1//EN" "http://www.w3.org/Graphics/SVG/1.1/DTD/svg11.dtd">
<svg version="1.1" id="Layer_1" xmlns="http://www.w3.org/2000/svg" xmlns:xlink="http://www.w3.org/1999/xlink" x="0px" y="0px"
	 viewBox="0 0 555.6 554.7" enable-background="new 0 0 555.6 554.7" xml:space="preserve">
<g>
	<path fill="#333333" d="M277,554.7C124.2,554.6,0,430.3,0,277.6C0,123.3,124.9-0.2,280.8,0c150.8,0.2,275.1,125.9,274.9,278.1
		C555.4,431.4,431.1,554.8,277,554.7z M277.7,54.9C154,55,55,154.4,55.3,278c0.3,123,99.5,222.2,222.1,222.2
		c123.8,0,223-99,223-222.6C500.4,153.8,401.5,54.9,277.7,54.9z"/>
	<path fill="#333333" d="M143,364.8c0-60.6,0-119.6,0-180.8c7.4,0,14.4-0.1,21.4,0c26.4,0.4,52.8,0.1,79.2,1.7
		c19.3,1.2,34,11.2,40.2,30.4c6.5,20,0.6,37.5-17.3,51.9c19.5,11.3,27.9,28.3,24.7,50.2c-3.8,26.1-20.5,44.2-48.2,46.1
		C210.3,366.5,177.1,364.8,143,364.8z M180.6,287c0,16,0,30.9,0,46.3c17,0,33,0.6,49-0.2c15-0.7,22.9-9.7,23-24.1
		c0-13.5-6.6-21.1-21.5-21.9C214.7,286.4,198.2,287,180.6,287z M180.2,256.2c19-0.9,37.2-1,55.2-2.8c10-1,14-9.1,13.8-18.5
		c-0.2-9.7-5.7-16.6-15.5-17c-17.6-0.8-35.3-0.2-53.5-0.2C180.2,230.2,180.2,241.7,180.2,256.2z"/>
	<path fill="#333333" d="M338.6,308.6c-1.4,13.5,3.8,20,14,25.7c10.6,4.8,26.7,5.4,36.3-0.8c5.6-3.6,10-13.2,10-13.2
		s15.2-0.4,30.3-0.4c-1.4,26.7-31.7,53.4-65.9,50.4c-42.8-3.7-66.4-34.5-61.9-80.8c4.2-43.2,34.6-66.5,79.7-60.9
		c35.8,4.4,58.7,38.5,52.3,80C402,308.6,370.4,308.6,338.6,308.6z M400.9,284.3c-3.7-19.2-16.5-26.7-33.8-26.5
		c-16.3,0.2-24.3,7.6-27.9,26.5C358.2,284.3,381.2,284.3,400.9,284.3z"/>
	<path fill="#333333" d="M326.2,213.2c0-6.7,0-11.9,0-18.1c26.2,0,51.8,0,78.2,0c0,6.1,0,11.6,0,18.1
		C378.5,213.2,352.9,213.2,326.2,213.2z"/>
</g>
</svg>
