<?xml version="1.0" encoding="utf-8"?>
<!-- Generator: Adobe Illustrator 17.1.0, SVG Export Plug-In . SVG Version: 6.00 Build 0)  -->
<!DOCTYPE svg PUBLIC "-//W3C//DTD SVG 1.1//EN" "http://www.w3.org/Graphics/SVG/1.1/DTD/svg11.dtd">
<svg version="1.1" id="Layer_1" xmlns="http://www.w3.org/2000/svg" xmlns:xlink="http://www.w3.org/1999/xlink" x="0px" y="0px"
	 width="337.3px" height="336.7px" viewBox="0 0 337.3 336.7" enable-background="new 0 0 337.3 336.7" xml:space="preserve">
<g>
	<path fill="#333333" d="M168.1,336.7C75.4,336.6,0,261.2,0,168.5C0,74.8,75.8-0.1,170.4,0c91.5,0.1,167,76.4,166.8,168.8
		C337.1,261.8,261.6,336.7,168.1,336.7z M168.6,33.3c-75.1,0-135.2,60.3-135,135.4c0.2,74.7,60.4,134.9,134.8,134.9
		c75.1,0,135.4-60.1,135.4-135.1C303.7,93.3,243.7,33.3,168.6,33.3z"/>
	<path fill="#333333" d="M86.8,221.4c0-36.8,0-72.6,0-109.8c4.5,0,8.7-0.1,13,0c16,0.3,32.1,0.1,48.1,1c11.7,0.7,20.6,6.8,24.4,18.4
		c4,12.2,0.4,22.8-10.5,31.5c11.8,6.9,17,17.2,15,30.5c-2.3,15.9-12.5,26.8-29.2,28C127.6,222.5,107.5,221.4,86.8,221.4z
		 M109.6,174.2c0,9.7,0,18.7,0,28.1c10.3,0,20.1,0.3,29.8-0.1c9.1-0.4,13.9-5.9,13.9-14.6c0-8.2-4-12.8-13-13.3
		C130.3,173.8,120.3,174.2,109.6,174.2z M109.4,155.5c11.5-0.5,22.6-0.6,33.5-1.7c6-0.6,8.5-5.5,8.4-11.2
		c-0.1-5.9-3.4-10.1-9.4-10.3c-10.7-0.5-21.4-0.1-32.5-0.1C109.4,139.7,109.4,146.7,109.4,155.5z"/>
	<path fill="#333333" d="M205.5,187.3c-0.9,8.2,2.3,12.1,8.5,15.6c6.4,2.9,16.2,3.3,22-0.5c3.4-2.2,6-8,6-8s9.2-0.2,18.4-0.2
		c-0.9,16.2-19.2,32.4-40,30.6c-26-2.3-40.3-21-37.6-49c2.5-26.2,21-40.3,48.4-37c21.7,2.7,35.6,23.4,31.8,48.5
		C244,187.3,224.8,187.3,205.5,187.3z M243.3,172.6c-2.3-11.7-10-16.2-20.5-16.1c-9.9,0.1-14.8,4.6-17,16.1
		C217.4,172.6,231.3,172.6,243.3,172.6z"/>
	<path fill="#333333" d="M198,129.4c0-4.1,0-7.2,0-11c15.9,0,31.4,0,47.5,0c0,3.7,0,7.1,0,11C229.7,129.4,214.2,129.4,198,129.4z"/>
</g>
</svg>
