<?xml version="1.0" encoding="utf-8"?>
<!-- Generator: Adobe Illustrator 17.1.0, SVG Export Plug-In . SVG Version: 6.00 Build 0)  -->
<!DOCTYPE svg PUBLIC "-//W3C//DTD SVG 1.1//EN" "http://www.w3.org/Graphics/SVG/1.1/DTD/svg11.dtd">
<svg version="1.1" id="Layer_1" xmlns="http://www.w3.org/2000/svg" xmlns:xlink="http://www.w3.org/1999/xlink" x="0px" y="0px"
	 viewBox="0 0 531.8 531.7" enable-background="new 0 0 531.8 531.7" xml:space="preserve">
<g>
	<g>
		<g>
			<rect x="94.8" y="0" fill="#333333" width="34.6" height="150.1"/>
		</g>
	</g>
	<g>
		<g>
			<path fill="#333333" d="M72.4,0.2v149.8H37.9V11.3C44.2,7.5,51,4.6,58,2.7C62.8,1.5,67.7,0.7,72.4,0.2z"/>
		</g>
	</g>
	<g>
		<g>
			<path fill="#333333" d="M15.5,31.8v118.3H0V78.6C0,61.5,5.6,45.1,15.5,31.8z"/>
		</g>
	</g>
	<g>
		<path fill="#333333" d="M453.3,0H151.9v150.1h19.9c22-14.3,45.8-33.2,95-33.2c48.1,0,71.9,19,93.9,33.2h171.2V78.6
			C531.8,29,502.8,0,453.3,0z M494.1,111.5c0,8.2-6.7,14.9-14.9,14.9h-62.3c-8.3,0-14.9-6.7-14.9-14.9V49.2
			c0-8.3,6.6-14.9,14.9-14.9h62.3c8.2,0,14.9,6.6,14.9,14.9V111.5z"/>
	</g>
	<g>
		<g>
			<path fill="#333333" d="M531.8,172.5v280.6c0,43.3-35.2,78.6-78.6,78.6H78.6C35.2,531.7,0,496.4,0,453.1V172.5h148.8
				c-21.7,26.7-33.8,60.4-33.8,95.4c0,83.5,68,151.5,151.5,151.5c83.5,0,151.5-68,151.5-151.5c0-35-12.1-68.7-33.8-95.4H531.8z"/>
		</g>
	</g>
	<g>
		<g>
			<path fill="#333333" d="M476,80.3c0,15.5-12.6,28.1-28.1,28.1c-15.4,0-27.9-12.6-27.9-28.1c0-15.5,12.6-27.9,27.9-27.9
				C463.4,52.3,476,64.8,476,80.3z"/>
		</g>
	</g>
	<path fill="#333333" d="M353.5,172.5c-1-0.9-2-1.8-3-2.7l-8.8-7.4c-4.1-3-8.4-5.7-12.9-8.2c-1.2-0.7-2.5-1.3-3.8-1.9
		c-17.5-9-37.4-14-58.4-14c-21,0-40.9,5.1-58.4,14c-1.3,0.6-2.6,1.2-3.8,1.9c-4.5,2.5-8.8,5.2-12.9,8.2l-8.8,7.4c-1,0.9-2,1.8-3,2.7
		c-26.8,24.5-42.2,58.9-42.2,95.4c0,71.2,57.9,129.1,129.1,129.1S395.7,339.1,395.7,268C395.7,231.5,380.3,197,353.5,172.5z
		 M266.6,327.8c-33,0-59.8-26.8-59.8-59.8c0-33,26.8-59.8,59.8-59.8s59.8,26.8,59.8,59.8C326.4,300.9,299.6,327.8,266.6,327.8z"/>
	<path fill="#333333" d="M304.7,267.9c0,21-17.1,38.2-38.2,38.2c-21,0-38.2-17.2-38.2-38.2c0-21,17.2-38.2,38.2-38.2
		C287.7,229.8,304.7,246.9,304.7,267.9z"/>
</g>
</svg>
